<?xml version="1.0" encoding="UTF-8" standalone="no"?>
<!-- Created with Inkscape (http://www.inkscape.org/) -->

<svg
   version="1.1"
   id="svg1"
   width="416"
   height="416"
   viewBox="0 0 416 416"
   xmlns="http://www.w3.org/2000/svg"
   xmlns:svg="http://www.w3.org/2000/svg">
  <defs
     id="defs1" />
  <g
     id="g1">
    <path
       style="fill:#000000"
       d="m 113.38092,337.29875 c -1.62193,-0.70217 -1.74324,-3.11102 -0.31388,-6.2328 0.40946,-0.89427 3.81726,-6.16195 7.57289,-11.70595 3.75563,-5.544 11.17056,-16.488 16.47762,-24.32 18.66137,-27.53989 26.95425,-39.84683 27.31622,-40.53833 0.89425,-1.70832 2.4933,-1.20641 5.55873,1.74478 4.93528,4.75135 9.53639,12.24789 11.26149,18.34819 1.56895,5.54817 1.81199,12.12812 0.65489,17.73003 -1.43316,6.93834 -5.22011,15.08623 -8.74894,18.82393 -1.53283,1.62355 -2.45002,2.07846 -32.67994,16.20871 -5.192,2.42687 -11.28105,5.28741 -13.53122,6.35675 -2.25018,1.06934 -5.13018,2.31982 -6.4,2.77884 -2.48299,0.89757 -6.03386,1.29678 -7.16786,0.80585 z M 181.84555,306 c 8.78256,-8.84642 13.92328,-17.59422 15.44476,-26.28192 0.54253,-3.09783 0.59968,-5.98529 0.16394,-8.28292 -1.26015,-6.64474 -19.89788,-47.98808 -45.39742,-100.70332 -3.39968,-7.02817 -3.39968,-7.02817 -3.52477,-10.14241 -0.10095,-2.51346 0.006,-3.54516 0.55338,-5.34795 0.85275,-2.8075 3.31588,-6.5344 5.72767,-8.66644 2.46452,-2.17865 2.33938,-2.11556 34.30689,-17.29607 3.608,-1.71335 16.11398,-7.67003 27.79106,-13.23707 11.67708,-5.56705 21.29435,-10.1219 21.3717,-10.1219 0.0774,0 -0.81168,0.89086 -1.97564,1.97969 -4.44042,4.1538 -9.03801,10.2624 -11.59123,15.40072 -4.80888,9.67783 -5.44807,17.8939 -2.13529,27.44696 4.52189,13.03977 18.44819,43.97403 37.8396,84.05246 6.16156,12.73481 6.56678,13.97284 6.57241,20.08017 0.004,4.03539 -0.58532,6.88748 -2.06107,9.97963 -1.11389,2.33396 -4.08097,5.67227 -6.30526,7.09416 -1.49176,0.95362 -12.98067,6.45485 -29.66628,14.2051 -4.752,2.20724 -12.85387,5.9737 -18.00415,8.36991 -5.15029,2.3962 -10.76629,4.98897 -12.48,5.7617 -1.71372,0.77272 -6.84512,3.14748 -11.40311,5.27723 -4.558,2.12975 -8.36716,3.87227 -8.46481,3.87227 -0.0977,0 1.35928,-1.548 3.23762,-3.44 z m 67.2588,-144.44859 c -3.36411,-3.10093 -8.32902,-9.92767 -10.78649,-14.83141 -2.91617,-5.81905 -3.64949,-9.82943 -3.11411,-17.03041 0.62594,-8.41906 1.90647,-12.69067 6.11833,-20.40959 2.99438,-5.48768 3.44187,-6.0393 5.80392,-7.15431 1.0967,-0.51769 6.818,-3.205217 12.714,-5.972269 5.896,-2.767052 14.248,-6.688075 18.56,-8.713384 4.312,-2.02531 9.65482,-4.514898 11.87293,-5.532418 11.71866,-5.375733 16.1034,-4.563897 12.50422,2.315161 -0.67257,1.285471 -3.45676,5.72122 -6.18708,9.85722 -9.79243,14.83394 -23.69729,35.95808 -34.01812,51.68 -10.70341,16.30474 -11.26289,17.12 -11.7487,17.12 -0.15265,0 -0.92616,-0.59787 -1.7189,-1.32859 z"
       id="path1" />
  </g>
</svg>
